# xmcd CD database file
# Copyright (C) 1996 Ti Kan
#
# Track frame offsets:
#  183
#  16120
#  44460
#  63733
#  89815
#  102343
#  116890
#  148985
#  171768
#
# Disc length: 2621 seconds
#
# Revision: 1
# Processed by: cddbd v1.4b41PL1 Copyright (c) Steve Scherf et al.
# Submitted via: CDWizzard Release:4.14
#
DISCID=860a3b09
DTITLE=John Lee Hooker - Alone [CD2]
DYEAR=1900
DGENRE=
TTITLE0=Feel Good
TTITLE1=Some People
TTITLE2=T.B.
TTITLE3=Baby, Please Don't Go
TTITLE4=Mama Killed A Chicken
TTITLE5=Hobo
TTITLE6=Tired Of Being Your Doggie
TTITLE7=All Night Long
TTITLE8=Crawlin' Kingsnake
EXTD=
EXTT0=
EXTT1=
EXTT2=
EXTT3=
EXTT4=
EXTT5=
EXTT6=
EXTT7=
EXTT8=
PLAYORDER=
